<svg xmlns="http://www.w3.org/2000/svg" viewBox="0 0 115.4 144.8"><title>Recurso 3</title><g id="Capa_2" data-name="Capa 2"><g id="Capa_1-2" data-name="Capa 1"><path d="M23,132l-.2,1.2H17.7s-.9-17.8-.1-47.2c.3-9.6.1-28.9.1-28.9l-5,4.8-.3-20.3L17.9,34,17.3,8.6H43.9l-5,5.2H61l5.2-5.1h13l-4.1,4.3L70.8,17l2.8,2.9L85.1,8.5H96.6V37.3H49.9v7.6L35,59.4l3.1,2.8L49.9,50.3v4.8l41,.2.6,28.3L50,84c0,6.5-.1,12.9-.1,19.3H74.7l-2.5,2.5c4,.2,25.9.4,25.9.4V110l-7.7,8.2,2.8,2.7,4.9-5.7v19.5H72.7c2.2-2.5,4.5-4.9,6.8-7.4L77,124.9l-10.6,9.8H43.5l2-2.4Z" style="fill:#fff"/><path d="M17.7,133.3H12.9v-51l.5-.4,2.4,2.4,1.9-2.1Z" style="fill:#fe3146"/><path d="M92.9,55.3h5.4c0,9.5.1,18.9.2,28.4H93.4Z" style="fill:#00fce7"/><path d="M12.6,57.3l-5.1,5c.2-7.4.5-14.8.7-22.2l3.6-4.5,1.5-1.5-.8-2.3,5.2-5,.2,7.2-5.5,7.7Z" style="fill:#fe3146"/><polygon points="96.6 8.5 101.7 8.5 101.8 37.1 96.6 37.3 96.6 8.5" style="fill:#00fce7"/><path d="M7.8,36.4,5.1,33.8,17.6,20.9v5.9Z" style="fill:#fff"/><path d="M110.4,103.6c-.2.7-12.2,11.6-12.2,11.6V110l8.9-8.8" style="fill:#fff"/><polygon points="49.9 103.3 50 84 54.9 83.9 54.9 103.3 49.9 103.3" style="fill:#00fce7"/><path d="M98.2,120.9l5.2-4.9c-.1,6.2-.1,12.4-.1,18.6H98.2Z" style="fill:#01fce7"/><path d="M15.8,84.3l-3.1-3.1,5.1-4.8v5.7Z" style="fill:#fff"/><polygon points="12.7 62 17.7 57.2 17.7 71.8 12.7 76.2 12.7 62" style="fill:#fe3146"/><polygon points="66.4 134.7 72.7 134.8 62.7 144.6 59.9 141.9 66.4 134.7" style="fill:#fff"/><path d="M12.6,26,5.1,33.8l.3.3L2.9,36.4,0,33.5,12.5,21.1Z" style="fill:#fe3146"/><polygon points="103.3 110.5 112.1 101.5 112.1 101.5 115.4 103.8 103.4 116 103.3 110.5" style="fill:#01fce7"/><polygon points="73.2 55.4 83.7 44.7 86 46.9 77.4 55.5 73.2 55.4" style="fill:#fd3146"/><polygon points="88.9 55.3 83.9 55.2 94.1 44.9 96.1 47.2 88.9 55.3" style="fill:#01fce7"/><path d="M17.5,16.3l-5,4.8V8.6h4.8Z" style="fill:#fe3146"/><path d="M65,142.3l7.7-7.5h5l-9.9,10Z" style="fill:#01fce7"/><path d="M66.4,134.7l-6.5,7.2.2.2a27.3,27.3,0,0,0-2.3,2.5L55,141.9l6.8-7.2Z" style="fill:#fd3146"/><path d="M85.1,8.5H79.3L87.9,0l2.9,2.7" style="fill:#fff"/><polygon points="85.1 8.5 90.8 2.7 90.4 2.3 93 0 95.6 2.7 90.3 8.5 85.1 8.5" style="fill:#01fbe6"/><path d="M85.5,2.3c-2,2.1-4.1,4.1-6.2,6.2h-5L82.9,0Z" style="fill:#fd3146"/><path d="M13.4,81.9l-2.5,2.4L8,80.9l4.7-4.7v5Z" style="fill:#fd3146"/><path d="M105.1,103.2,98.2,110v-3.7h-.8l5.4-5.5,1,1.1Z" style="fill:#fb3146"/><path d="M57.1,42.4l2.8,2.9-5,5.5V45.6l-.5-.5Z" style="fill:#01fce7"/><path d="M66.2,8.5,61,13.6H56.1l5.2-5.2Z" style="fill:#fc3146"/><polygon points="43.9 13.6 38.9 13.7 43.9 8.5 49 8.5 43.9 13.6" style="fill:#01fbe6"/><polygon points="77.2 106 72.2 105.9 74.7 103.4 79.7 103.4 77.2 106" style="fill:#03f8e4"/><path d="M40.9,132.2h4.6l-2,2.4H38.6Z" style="fill:#fd3146"/><path d="M23,132h2.9l-.5,2.6H22.5Z" style="fill:#02fbe7"/><polygon points="10.3 34 12.5 31.8 13.3 34.1 11.8 35.6 10.3 34" style="fill:#10f2e1"/><polygon points="30.4 65.1 32.6 67.4 17.8 82.1 17.8 77.2 30.4 65.1" style="fill:#fe3146"/><path d="M49.8,44.7l2.3-2.2,2.8,3.1-5,4.7C49.9,48.4,49.9,46.6,49.8,44.7Z" style="fill:#fff"/><path d="M80.1,8.5h5L73.6,19.9l-2.3-2.4Z" style="fill:#fd3146"/><polygon points="72.7 134.8 67.6 134.7 75 127.6 74.6 127.1 77 124.9 79.5 127.4 72.7 134.8" style="fill:#fd3146"/><path d="M35.5,59.9l9.3-9.2c0,1.5,0,3.1.1,4.6l-6.8,6.9Z" style="fill:#fd3146"/><path d="M93.3,120.9v-4.6a15.1,15.1,0,0,1,2.1-2.3l2.8-2.7v3.9Z" style="fill:#02fbe6"/><path d="M80.1,8.5l-8.8,9-.5-.5,8.4-8.5Z" style="fill:#0af2e4"/><path d="M78.6,55.2c-.6.8-6.8,6.9-6.8,6.9l-.6-.4,6.5-6.5Z" style="fill:#04f1e2"/><polygon points="93.3 116.3 93.3 120.9 90.9 118.6 93.3 116.3" style="fill:#f13447"/><path d="M22.9,72.2l-.2-.7,4.6-4.6c.7.4.2.7-.1,1Z" style="fill:#12f0e2"/><path d="M49.9,103.3h2.6l-2.6,2.4Z" style="fill:#f03247"/><path d="M51.1,37.4h3.6A10.9,10.9,0,0,1,51.1,37.4Z" style="fill:#01fce7"/><path d="M23.2,15.9l.3,5-5.8,5.9c0-2,0-3.9-.1-5.9Z" style="fill:#fd3146"/><path d="M71.8,62.1l6.8-6.9h5l-9,9.1Z" style="fill:#fd3146"/><polygon points="93.5 116 93.3 115.2 98.2 110 98.2 111.3 93.5 116" style="fill:#f03147"/><path d="M93.3,115.3l.3.7-2.7,2.6-.4-.4Z" style="fill:#0debdd"/><path d="M74.6,127.1l.4.5-7.4,7.1H66.4Z" style="fill:#04f0e3"/><polygon points="52.1 42.5 49.9 44.7 49.9 37.2 55 37.2 54.9 44.6 54.4 45.1 52.1 42.5" style="fill:#01fce7"/><path d="M44.8,50.7l5.1-5v3.9l-5,5.1c0-1.3-.1-2.7-.1-4l-9.3,9.2-.5-.5,9.8-9.7Z" style="fill:#0af4e3"/><path d="M44.8,50.7v-1l5.1-4.9v.9Z" style="fill:#ed354a"/></g></g></svg>